<svg width="639" height="157" viewBox="0 0 639 157" fill="none" xmlns="http://www.w3.org/2000/svg">
<mask id="mask0_4_11" style="mask-type:luminance" maskUnits="userSpaceOnUse" x="0" y="0" width="100" height="157">
<path d="M1.02474 0.35H98.9407V155.694H1.02474V0.35Z" fill="white" stroke="white" stroke-width="0.7"/>
</mask>
<g mask="url(#mask0_4_11)">
<path d="M51.7743 0.35012L98.9407 0.347577V22.0028C98.94 27.7517 96.7788 33.2611 92.9379 37.3202C89.0977 41.3787 83.8938 43.6546 78.4721 43.6543H46.9517V32.3558H78.477H78.4777C81.0847 32.3509 83.5795 31.2548 85.4179 29.3141C87.2556 27.3741 88.2887 24.7477 88.2966 22.0103V22.0093V11.9857V11.6357H87.9466L51.7791 11.6357L51.7774 11.6357C49.1693 11.6484 46.6762 12.7511 44.8408 14.6964C43.006 16.6411 41.9765 19.27 41.9716 22.0086V22.0093V26.5348L41.9255 26.5232V26.9717V119.504V119.905L41.9812 119.897V133.67H41.9544L41.9546 134.02C41.9563 136.866 41.4277 139.683 40.3993 142.312C39.3709 144.942 37.8631 147.329 35.963 149.34C34.0628 151.351 31.8077 152.945 29.3269 154.032L29.3268 154.032C26.8459 155.121 24.1875 155.681 21.503 155.682H1.01505L1.01505 118.015C1.01695 112.264 3.17983 106.754 7.02242 102.694C10.8644 98.6349 16.07 96.3588 21.4932 96.3596H30.9508H31.3008V96.0096V76.0164V75.6664H30.9508H1.01993L1.01993 54.0188L1.01993 54.0185C1.01757 51.17 1.54663 48.3494 2.57641 45.7181C3.6062 43.087 5.11622 40.6974 7.01922 38.6859L6.76915 38.4494L7.01922 38.6859C8.92219 36.6744 11.1806 35.0802 13.6648 33.9938C16.149 32.9074 18.8107 32.3496 21.4979 32.352H21.4982H30.9556H31.3056V32.002V22.0055C31.3056 22.0055 31.3056 22.0054 31.3056 22.0054C31.3073 16.2566 33.4687 10.7472 37.3092 6.68774C41.1492 2.6289 46.3526 0.351813 51.7742 0.35012C51.7742 0.35012 51.7743 0.35012 51.7743 0.35012ZM30.9556 64.3666H31.3056L31.3056 64.0167L31.3105 43.989L31.3106 43.6389H30.9605H21.503L21.5016 43.6389C18.8906 43.6494 16.3938 44.7522 14.5558 46.6992C12.7183 48.6456 11.6877 51.2777 11.6834 54.0195V54.02V64.0166V64.3666H12.0334H30.9556ZM31.3056 134.032V134.031V108.025V107.675H30.9556H21.4983C21.4983 107.675 21.4982 107.675 21.4982 107.675C18.8892 107.674 16.391 108.768 14.5513 110.71C12.7122 112.652 11.6809 115.281 11.6785 118.021V118.021V144.038V144.388H12.0285H21.4982H21.4991C24.106 144.381 26.5998 143.282 28.436 141.338C30.2715 139.397 31.3014 136.769 31.3056 134.032ZM46.9517 107.675V96.3685L61.0182 96.3685L61.0191 96.3685C63.6255 96.3619 66.1195 95.2653 67.9574 93.325C69.7947 91.3854 70.8283 88.7601 70.8379 86.0231V86.0219V76.0151V75.6651H70.4879H46.9517V64.3641H81.5013V85.6694H81.4915L81.4917 86.0195C81.4931 88.8664 80.9636 91.6852 79.934 94.3146C78.9043 96.944 77.3949 99.3319 75.493 101.342C73.5911 103.353 71.334 104.946 68.8514 106.032C66.3689 107.118 63.7089 107.676 61.0233 107.675H61.0231H46.9517Z" fill="#0DDE9B" stroke="black" stroke-width="0.7"/>
</g>
<path d="M91.1648 114V63.0909H121.69V68.5597H97.3295V85.7614H119.403V91.2301H97.3295V114H91.1648ZM138.414 63.0909V114H132.249V63.0909H138.414ZM152.862 114H146.399L165.092 63.0909H171.456L190.149 114H183.686L168.473 71.1449H168.075L152.862 114ZM155.249 94.1136H181.3V99.5824H155.249V94.1136ZM198.079 114V63.0909H215.281C219.274 63.0909 222.539 63.8118 225.075 65.2535C227.627 66.6787 229.516 68.6094 230.742 71.0455C231.969 73.4815 232.582 76.1993 232.582 79.1989C232.582 82.1984 231.969 84.9245 230.742 87.3771C229.532 89.8298 227.66 91.7853 225.124 93.2436C222.589 94.6854 219.341 95.4062 215.38 95.4062H203.05V89.9375H215.181C217.915 89.9375 220.111 89.4652 221.768 88.5206C223.426 87.576 224.627 86.3 225.373 84.6925C226.135 83.0684 226.516 81.2372 226.516 79.1989C226.516 77.1605 226.135 75.3376 225.373 73.7301C224.627 72.1226 223.417 70.8632 221.744 69.9517C220.07 69.0237 217.849 68.5597 215.082 68.5597H204.244V114H198.079Z" fill="#ED195C"/>
<path d="M242.512 114V63.0909H248.677V108.531H272.342V114H242.512ZM287.188 114H280.725L299.419 63.0909H305.782L324.475 114H318.012L302.799 71.1449H302.401L287.188 114ZM289.575 94.1136H315.626V99.5824H289.575V94.1136ZM372.774 63.0909V114H366.808L339.067 74.0284H338.57V114H332.405V63.0909H338.371L366.212 103.162H366.709V63.0909H372.774ZM382.326 68.5597V63.0909H420.508V68.5597H404.499V114H398.335V68.5597H382.326ZM426.163 114H419.7L438.393 63.0909H444.757L463.45 114H456.987L441.774 71.1449H441.376L426.163 114ZM428.549 94.1136H454.6V99.5824H428.549V94.1136ZM509.953 79H503.788C503.424 77.2268 502.786 75.669 501.874 74.3267C500.979 72.9844 499.885 71.8575 498.593 70.946C497.317 70.018 495.9 69.322 494.342 68.858C492.784 68.3939 491.16 68.1619 489.47 68.1619C486.388 68.1619 483.595 68.9408 481.093 70.4986C478.607 72.0563 476.627 74.3516 475.152 77.3842C473.693 80.4169 472.964 84.1373 472.964 88.5455C472.964 92.9536 473.693 96.674 475.152 99.7067C476.627 102.739 478.607 105.035 481.093 106.592C483.595 108.15 486.388 108.929 489.47 108.929C491.16 108.929 492.784 108.697 494.342 108.233C495.9 107.769 497.317 107.081 498.593 106.17C499.885 105.242 500.979 104.107 501.874 102.764C502.786 101.405 503.424 99.8475 503.788 98.0909H509.953C509.489 100.693 508.644 103.021 507.417 105.076C506.191 107.131 504.666 108.879 502.844 110.321C501.021 111.746 498.974 112.832 496.704 113.577C494.45 114.323 492.039 114.696 489.47 114.696C485.128 114.696 481.267 113.635 477.886 111.514C474.506 109.393 471.846 106.377 469.907 102.466C467.968 98.5549 466.998 93.9148 466.998 88.5455C466.998 83.1761 467.968 78.536 469.907 74.625C471.846 70.714 474.506 67.6979 477.886 65.5767C481.267 63.4555 485.128 62.3949 489.47 62.3949C492.039 62.3949 494.45 62.7678 496.704 63.5135C498.974 64.2592 501.021 65.353 502.844 66.7947C504.666 68.2199 506.191 69.96 507.417 72.0149C508.644 74.0533 509.489 76.3816 509.953 79ZM486.885 114.199H491.757L491.359 116.188C492.652 116.386 493.837 116.925 494.914 117.803C495.991 118.698 496.53 120.115 496.53 122.054C496.53 124.192 495.643 125.932 493.87 127.274C492.113 128.633 489.52 129.312 486.089 129.312L485.89 125.435C487.432 125.435 488.708 125.186 489.719 124.689C490.746 124.208 491.26 123.396 491.26 122.253C491.26 121.109 490.837 120.33 489.992 119.916C489.147 119.502 487.78 119.22 485.89 119.071L486.885 114.199ZM522.003 114H515.54L534.233 63.0909H540.597L559.29 114H552.827L537.614 71.1449H537.216L522.003 114ZM524.389 94.1136H550.44V99.5824H524.389V94.1136ZM529.759 58.0199L525.185 57.821C525.185 55.2855 525.906 53.214 527.347 51.6065C528.806 49.9825 530.604 49.1705 532.741 49.1705C533.686 49.1705 534.523 49.3362 535.252 49.6676C535.981 49.9825 536.677 50.3471 537.34 50.7614C538.003 51.1757 538.683 51.5485 539.379 51.88C540.091 52.1948 540.895 52.3523 541.79 52.3523C542.734 52.3523 543.53 51.9877 544.176 51.2585C544.839 50.5128 545.17 49.6179 545.17 48.5739L549.645 48.9716C549.645 51.5568 548.916 53.6117 547.457 55.1364C546.016 56.661 544.226 57.4233 542.088 57.4233C540.945 57.4233 540 57.2659 539.254 56.951C538.509 56.6196 537.846 56.2467 537.266 55.8324C536.686 55.4181 536.072 55.0535 535.426 54.7386C534.78 54.4072 533.984 54.2415 533.04 54.2415C532.095 54.2415 531.308 54.6143 530.678 55.3601C530.065 56.0892 529.759 56.9758 529.759 58.0199ZM607.781 88.5455C607.781 93.9148 606.812 98.5549 604.873 102.466C602.934 106.377 600.274 109.393 596.894 111.514C593.513 113.635 589.652 114.696 585.31 114.696C580.968 114.696 577.107 113.635 573.726 111.514C570.345 109.393 567.686 106.377 565.747 102.466C563.808 98.5549 562.838 93.9148 562.838 88.5455C562.838 83.1761 563.808 78.536 565.747 74.625C567.686 70.714 570.345 67.6979 573.726 65.5767C577.107 63.4555 580.968 62.3949 585.31 62.3949C589.652 62.3949 593.513 63.4555 596.894 65.5767C600.274 67.6979 602.934 70.714 604.873 74.625C606.812 78.536 607.781 83.1761 607.781 88.5455ZM601.816 88.5455C601.816 84.1373 601.078 80.4169 599.603 77.3842C598.145 74.3516 596.164 72.0563 593.662 70.4986C591.176 68.9408 588.392 68.1619 585.31 68.1619C582.227 68.1619 579.435 68.9408 576.933 70.4986C574.447 72.0563 572.467 74.3516 570.992 77.3842C569.533 80.4169 568.804 84.1373 568.804 88.5455C568.804 92.9536 569.533 96.674 570.992 99.7067C572.467 102.739 574.447 105.035 576.933 106.592C579.435 108.15 582.227 108.929 585.31 108.929C588.392 108.929 591.176 108.15 593.662 106.592C596.164 105.035 598.145 102.739 599.603 99.7067C601.078 96.674 601.816 92.9536 601.816 88.5455Z" fill="#0A211D"/>
</svg>
