<svg width="600" height="200" viewBox="0 0 600 200" fill="none" xmlns="http://www.w3.org/2000/svg">
<rect width="600" height="200" rx="10" fill="#0A211D"/>
<mask id="mask0_1_17" style="mask-type:luminance" maskUnits="userSpaceOnUse" x="41" y="22" width="100" height="157">
<path d="M140.291 22H41.6747V178.044H140.291V22Z" fill="white"/>
</mask>
<g mask="url(#mask0_1_17)">
<path d="M92.7742 22.0001C87.2533 22.0018 81.9589 24.3208 78.055 28.4472C74.1511 32.5736 71.9573 38.1698 71.9556 44.0054V54.002H62.4982C59.7623 53.9996 57.0527 54.5675 54.5246 55.6731C51.9965 56.7787 49.6995 58.4005 47.765 60.4454C45.8304 62.4902 44.2963 64.9184 43.2505 67.5906C42.2046 70.2629 41.6675 73.1269 41.6699 76.0188V98.0164H71.9508V118.01H62.4933C56.9708 118.009 51.6741 120.327 47.7682 124.453C43.8623 128.58 41.667 134.177 41.665 140.015V178.032H62.503C65.2364 178.031 67.9426 177.461 70.4674 176.353C72.992 175.246 75.2856 173.624 77.2174 171.58C79.149 169.536 80.6808 167.11 81.7253 164.44C82.7697 161.769 83.3063 158.909 83.3046 156.02H83.3312V141.496L83.2755 141.504V48.9717L83.3216 48.9832V44.0093C83.3264 41.3571 84.3235 38.8145 86.0954 36.9366C87.8672 35.0587 90.2699 33.9979 92.7791 33.9857H128.947V44.0093C128.939 46.6602 127.938 49.2001 126.164 51.0734C124.389 52.9467 121.985 54.0011 119.477 54.0058H87.6017V66.0043H119.472C124.993 66.0046 130.288 63.6868 134.192 59.5608C138.096 55.4347 140.29 49.8385 140.291 44.0029V21.9976L92.7742 22.0001ZM71.9556 86.0166H53.0334V76.02C53.0376 73.3647 54.0359 70.8191 55.8103 68.9395C57.5847 67.0599 59.9909 65.999 62.503 65.9889H71.9605L71.9556 86.0166ZM71.9556 156.031C71.9515 158.682 70.954 161.223 69.1816 163.098C67.4091 164.974 65.006 166.031 62.4982 166.038H53.0285V140.021C53.0308 137.368 54.0297 134.826 55.8054 132.951C57.5812 131.076 59.9884 130.024 62.4982 130.025H71.9556V156.031ZM87.6017 98.0151H111.488V108.022C111.479 110.672 110.478 113.211 108.703 115.084C106.929 116.957 104.526 118.012 102.018 118.018H87.6017V130.025H102.023C104.757 130.026 107.465 129.458 109.992 128.353C112.518 127.247 114.814 125.626 116.747 123.583C118.681 121.539 120.214 119.113 121.26 116.442C122.306 113.772 122.843 110.91 122.842 108.019H122.851V86.0141H87.6017V98.0151Z" fill="#27EACC"/>
</g>
<path d="M132.165 136V85.0909H162.69V90.5597H138.33V107.761H160.403V113.23H138.33V136H132.165ZM179.414 85.0909V136H173.249V85.0909H179.414ZM193.862 136H187.399L206.092 85.0909H212.456L231.149 136H224.686L209.473 93.1449H209.075L193.862 136ZM196.249 116.114H222.3V121.582H196.249V116.114ZM239.079 136V85.0909H256.281C260.274 85.0909 263.539 85.8118 266.075 87.2535C268.627 88.6787 270.516 90.6094 271.742 93.0455C272.969 95.4815 273.582 98.1993 273.582 101.199C273.582 104.198 272.969 106.924 271.742 109.377C270.532 111.83 268.66 113.785 266.124 115.244C263.589 116.685 260.341 117.406 256.38 117.406H244.05V111.938H256.181C258.915 111.938 261.111 111.465 262.768 110.521C264.426 109.576 265.627 108.3 266.373 106.692C267.135 105.068 267.516 103.237 267.516 101.199C267.516 99.1605 267.135 97.3376 266.373 95.7301C265.627 94.1226 264.417 92.8632 262.744 91.9517C261.07 91.0237 258.849 90.5597 256.082 90.5597H245.244V136H239.079Z" fill="#ED195C"/>
<path d="M288.583 85.0909V136H282.717V85.0909H288.583ZM310.564 136.895C308.145 136.895 305.949 136.439 303.977 135.528C302.005 134.6 300.439 133.266 299.279 131.526C298.119 129.769 297.539 127.648 297.539 125.162C297.539 122.974 297.969 121.201 298.831 119.842C299.693 118.467 300.845 117.39 302.286 116.611C303.728 115.832 305.319 115.252 307.059 114.871C308.816 114.473 310.581 114.158 312.354 113.926C314.674 113.628 316.555 113.404 317.997 113.255C319.455 113.089 320.516 112.816 321.178 112.435C321.858 112.054 322.198 111.391 322.198 110.446V110.247C322.198 107.795 321.526 105.889 320.184 104.53C318.858 103.171 316.845 102.491 314.144 102.491C311.343 102.491 309.147 103.105 307.556 104.331C305.965 105.557 304.847 106.866 304.2 108.259L298.632 106.27C299.627 103.95 300.952 102.143 302.61 100.851C304.283 99.5417 306.106 98.6302 308.078 98.1165C310.067 97.5862 312.022 97.321 313.945 97.321C315.171 97.321 316.58 97.4702 318.171 97.7685C319.778 98.0502 321.328 98.6385 322.819 99.5334C324.327 100.428 325.578 101.779 326.573 103.585C327.567 105.392 328.064 107.811 328.064 110.844V136H322.198V130.83H321.899C321.502 131.658 320.839 132.545 319.911 133.489C318.983 134.434 317.748 135.238 316.207 135.901C314.666 136.563 312.785 136.895 310.564 136.895ZM311.459 131.625C313.779 131.625 315.735 131.169 317.325 130.258C318.933 129.346 320.143 128.17 320.955 126.728C321.783 125.286 322.198 123.77 322.198 122.179V116.81C321.949 117.108 321.402 117.381 320.557 117.63C319.728 117.862 318.767 118.069 317.673 118.251C316.596 118.417 315.544 118.566 314.517 118.699C313.506 118.815 312.685 118.914 312.056 118.997C310.531 119.196 309.106 119.519 307.78 119.967C306.471 120.397 305.41 121.052 304.598 121.93C303.803 122.792 303.405 123.969 303.405 125.46C303.405 127.499 304.159 129.04 305.667 130.084C307.192 131.111 309.122 131.625 311.459 131.625ZM344.638 113.031V136H338.772V97.8182H344.439V103.784H344.936C345.831 101.845 347.19 100.287 349.013 99.1108C350.836 97.9176 353.189 97.321 356.073 97.321C358.658 97.321 360.92 97.8513 362.859 98.9119C364.798 99.956 366.306 101.547 367.383 103.685C368.46 105.806 368.999 108.491 368.999 111.739V136H363.132V112.136C363.132 109.137 362.354 106.8 360.796 105.126C359.238 103.436 357.1 102.591 354.382 102.591C352.51 102.591 350.836 102.997 349.361 103.809C347.903 104.621 346.751 105.806 345.906 107.364C345.061 108.921 344.638 110.811 344.638 113.031ZM396.324 97.8182V102.79H376.537V97.8182H396.324ZM382.304 88.6705H388.171V125.062C388.171 126.72 388.411 127.963 388.892 128.791C389.389 129.603 390.018 130.15 390.781 130.432C391.56 130.697 392.38 130.83 393.242 130.83C393.888 130.83 394.418 130.796 394.833 130.73C395.247 130.647 395.578 130.581 395.827 130.531L397.02 135.801C396.622 135.95 396.067 136.099 395.355 136.249C394.642 136.414 393.739 136.497 392.645 136.497C390.988 136.497 389.364 136.141 387.773 135.428C386.199 134.716 384.889 133.63 383.845 132.172C382.818 130.714 382.304 128.874 382.304 126.653V88.6705ZM416.384 136.895C413.965 136.895 411.769 136.439 409.797 135.528C407.825 134.6 406.259 133.266 405.099 131.526C403.939 129.769 403.359 127.648 403.359 125.162C403.359 122.974 403.79 121.201 404.651 119.842C405.513 118.467 406.665 117.39 408.107 116.611C409.548 115.832 411.139 115.252 412.879 114.871C414.636 114.473 416.401 114.158 418.174 113.926C420.494 113.628 422.375 113.404 423.817 113.255C425.275 113.089 426.336 112.816 426.999 112.435C427.678 112.054 428.018 111.391 428.018 110.446V110.247C428.018 107.795 427.347 105.889 426.004 104.53C424.679 103.171 422.665 102.491 419.964 102.491C417.163 102.491 414.968 103.105 413.377 104.331C411.786 105.557 410.667 106.866 410.021 108.259L404.453 106.27C405.447 103.95 406.773 102.143 408.43 100.851C410.104 99.5417 411.927 98.6302 413.899 98.1165C415.887 97.5862 417.843 97.321 419.765 97.321C420.991 97.321 422.4 97.4702 423.991 97.7685C425.598 98.0502 427.148 98.6385 428.639 99.5334C430.147 100.428 431.399 101.779 432.393 103.585C433.387 105.392 433.884 107.811 433.884 110.844V136H428.018V130.83H427.72C427.322 131.658 426.659 132.545 425.731 133.489C424.803 134.434 423.568 135.238 422.027 135.901C420.486 136.563 418.605 136.895 416.384 136.895ZM417.279 131.625C419.599 131.625 421.555 131.169 423.146 130.258C424.753 129.346 425.963 128.17 426.775 126.728C427.604 125.286 428.018 123.77 428.018 122.179V116.81C427.769 117.108 427.222 117.381 426.377 117.63C425.549 117.862 424.588 118.069 423.494 118.251C422.417 118.417 421.364 118.566 420.337 118.699C419.326 118.815 418.506 118.914 417.876 118.997C416.351 119.196 414.926 119.519 413.6 119.967C412.291 120.397 411.231 121.052 410.419 121.93C409.623 122.792 409.225 123.969 409.225 125.46C409.225 127.499 409.979 129.04 411.487 130.084C413.012 131.111 414.943 131.625 417.279 131.625ZM460.103 136.795C456.524 136.795 453.441 135.95 450.856 134.26C448.271 132.57 446.282 130.241 444.89 127.275C443.498 124.308 442.802 120.92 442.802 117.108C442.802 113.23 443.515 109.808 444.94 106.842C446.382 103.859 448.387 101.53 450.956 99.8565C453.541 98.1662 456.557 97.321 460.004 97.321C462.689 97.321 465.108 97.8182 467.262 98.8125C469.417 99.8068 471.182 101.199 472.557 102.989C473.933 104.778 474.786 106.866 475.118 109.253H469.251C468.804 107.513 467.809 105.972 466.268 104.629C464.743 103.27 462.689 102.591 460.103 102.591C457.816 102.591 455.811 103.187 454.088 104.381C452.381 105.557 451.047 107.223 450.086 109.377C449.141 111.515 448.669 114.026 448.669 116.909C448.669 119.859 449.133 122.428 450.061 124.615C451.005 126.803 452.331 128.501 454.038 129.711C455.761 130.921 457.783 131.526 460.103 131.526C461.628 131.526 463.012 131.26 464.255 130.73C465.498 130.2 466.55 129.438 467.412 128.443C468.273 127.449 468.886 126.256 469.251 124.864H475.118C474.786 127.117 473.966 129.147 472.657 130.954C471.364 132.744 469.649 134.169 467.511 135.229C465.39 136.273 462.921 136.795 460.103 136.795ZM457.319 135.801H462.191L461.794 137.79C463.086 137.989 464.271 138.527 465.348 139.406C466.426 140.3 466.964 141.717 466.964 143.656C466.964 145.794 466.078 147.534 464.304 148.876C462.548 150.235 459.954 150.915 456.524 150.915L456.325 147.037C457.866 147.037 459.142 146.788 460.153 146.291C461.181 145.811 461.694 144.999 461.694 143.855C461.694 142.712 461.272 141.933 460.426 141.518C459.581 141.104 458.214 140.822 456.325 140.673L457.319 135.801ZM494.929 136.895C492.51 136.895 490.314 136.439 488.342 135.528C486.37 134.6 484.804 133.266 483.644 131.526C482.484 129.769 481.904 127.648 481.904 125.162C481.904 122.974 482.335 121.201 483.196 119.842C484.058 118.467 485.21 117.39 486.652 116.611C488.093 115.832 489.684 115.252 491.424 114.871C493.181 114.473 494.946 114.158 496.719 113.926C499.039 113.628 500.92 113.404 502.362 113.255C503.82 113.089 504.881 112.816 505.544 112.435C506.223 112.054 506.563 111.391 506.563 110.446V110.247C506.563 107.795 505.892 105.889 504.549 104.53C503.224 103.171 501.21 102.491 498.509 102.491C495.708 102.491 493.512 103.105 491.922 104.331C490.331 105.557 489.212 106.866 488.566 108.259L482.998 106.27C483.992 103.95 485.318 102.143 486.975 100.851C488.649 99.5417 490.471 98.6302 492.444 98.1165C494.432 97.5862 496.388 97.321 498.31 97.321C499.536 97.321 500.945 97.4702 502.536 97.7685C504.143 98.0502 505.693 98.6385 507.184 99.5334C508.692 100.428 509.944 101.779 510.938 103.585C511.932 105.392 512.429 107.811 512.429 110.844V136H506.563V130.83H506.265C505.867 131.658 505.204 132.545 504.276 133.489C503.348 134.434 502.113 135.238 500.572 135.901C499.031 136.563 497.15 136.895 494.929 136.895ZM495.824 131.625C498.144 131.625 500.1 131.169 501.691 130.258C503.298 129.346 504.508 128.17 505.32 126.728C506.149 125.286 506.563 123.77 506.563 122.179V116.81C506.314 117.108 505.767 117.381 504.922 117.63C504.094 117.862 503.132 118.069 502.039 118.251C500.962 118.417 499.909 118.566 498.882 118.699C497.871 118.815 497.051 118.914 496.421 118.997C494.896 119.196 493.471 119.519 492.145 119.967C490.836 120.397 489.775 121.052 488.963 121.93C488.168 122.792 487.77 123.969 487.77 125.46C487.77 127.499 488.524 129.04 490.032 130.084C491.557 131.111 493.488 131.625 495.824 131.625ZM491.051 93.2443L486.478 93.0455C486.478 90.5099 487.199 88.4384 488.64 86.831C490.099 85.2069 491.897 84.3949 494.034 84.3949C494.979 84.3949 495.816 84.5606 496.545 84.892C497.274 85.2069 497.97 85.5715 498.633 85.9858C499.296 86.4001 499.975 86.773 500.672 87.1044C501.384 87.4193 502.188 87.5767 503.083 87.5767C504.027 87.5767 504.823 87.2121 505.469 86.483C506.132 85.7372 506.463 84.8423 506.463 83.7983L510.938 84.196C510.938 86.7812 510.209 88.8362 508.75 90.3608C507.309 91.8854 505.519 92.6477 503.381 92.6477C502.238 92.6477 501.293 92.4903 500.547 92.1754C499.801 91.844 499.139 91.4711 498.559 91.0568C497.979 90.6425 497.365 90.2779 496.719 89.9631C496.073 89.6316 495.277 89.4659 494.333 89.4659C493.388 89.4659 492.601 89.8388 491.971 90.5845C491.358 91.3137 491.051 92.2003 491.051 93.2443ZM538.648 136.795C535.201 136.795 532.177 135.975 529.575 134.335C526.99 132.694 524.968 130.399 523.51 127.449C522.068 124.499 521.347 121.052 521.347 117.108C521.347 113.131 522.068 109.659 523.51 106.692C524.968 103.726 526.99 101.423 529.575 99.782C532.177 98.1413 535.201 97.321 538.648 97.321C542.095 97.321 545.111 98.1413 547.697 99.782C550.298 101.423 552.32 103.726 553.762 106.692C555.22 109.659 555.949 113.131 555.949 117.108C555.949 121.052 555.22 124.499 553.762 127.449C552.32 130.399 550.298 132.694 547.697 134.335C545.111 135.975 542.095 136.795 538.648 136.795ZM538.648 131.526C541.267 131.526 543.421 130.854 545.111 129.512C546.802 128.17 548.053 126.405 548.865 124.217C549.677 122.03 550.083 119.66 550.083 117.108C550.083 114.556 549.677 112.178 548.865 109.974C548.053 107.77 546.802 105.988 545.111 104.629C543.421 103.27 541.267 102.591 538.648 102.591C536.03 102.591 533.876 103.27 532.185 104.629C530.495 105.988 529.244 107.77 528.432 109.974C527.62 112.178 527.214 114.556 527.214 117.108C527.214 119.66 527.62 122.03 528.432 124.217C529.244 126.405 530.495 128.17 532.185 129.512C533.876 130.854 536.03 131.526 538.648 131.526Z" fill="#FFFCFE"/>
</svg>
