<svg width="542" height="157" viewBox="0 0 542 157" fill="none" xmlns="http://www.w3.org/2000/svg">
<mask id="mask0_4_11" style="mask-type:luminance" maskUnits="userSpaceOnUse" x="0" y="0" width="100" height="157">
<path d="M99.2907 0H0.67474V156.044H99.2907V0Z" fill="white"/>
</mask>
<g mask="url(#mask0_4_11)">
<path d="M51.7742 0.000120413C46.2533 0.00181904 40.9589 2.32077 37.055 6.4472C33.1511 10.5736 30.9573 16.1698 30.9556 22.0054V32.002H21.4982C18.7623 31.9996 16.0527 32.5675 13.5246 33.6731C10.9965 34.7787 8.69951 36.4005 6.76497 38.4454C4.83043 40.4902 3.29635 42.9184 2.25049 45.5906C1.20463 48.2629 0.667539 51.1269 0.669931 54.0188V76.0164H30.9508V96.0096H21.4933C15.9708 96.0088 10.6741 98.3267 6.76823 102.453C2.86231 106.58 0.666976 112.177 0.665047 118.015V156.032H21.503C24.2364 156.031 26.9426 155.461 29.4674 154.353C31.992 153.246 34.2856 151.624 36.2174 149.58C38.149 147.536 39.6808 145.11 40.7253 142.44C41.7697 139.769 42.3063 136.909 42.3046 134.02H42.3312V119.496L42.2755 119.504V26.9717L42.3216 26.9832V22.0093C42.3264 19.3571 43.3235 16.8145 45.0954 14.9366C46.8672 13.0587 49.2699 11.9979 51.7791 11.9857H87.9466V22.0093C87.9389 24.6602 86.9383 27.2001 85.1638 29.0734C83.3892 30.9467 80.9851 32.0011 78.477 32.0058H46.6017V44.0043H78.4721C83.9931 44.0046 89.288 41.6868 93.1921 37.5608C97.0964 33.4347 99.29 27.8385 99.2907 22.0029V-0.00244141L51.7742 0.000120413ZM30.9556 64.0166H12.0334V54.02C12.0376 51.3647 13.0359 48.8191 14.8103 46.9395C16.5847 45.0599 18.9909 43.999 21.503 43.9889H30.9605L30.9556 64.0166ZM30.9556 134.031C30.9515 136.682 29.954 139.223 28.1816 141.098C26.4091 142.974 24.006 144.031 21.4982 144.038H12.0285V118.021C12.0308 115.368 13.0297 112.826 14.8054 110.951C16.5812 109.076 18.9884 108.024 21.4982 108.025H30.9556V134.031ZM46.6017 76.0151H70.4879V86.0219C70.4786 88.6724 69.4775 91.2113 67.7033 93.0843C65.9291 94.9573 63.5258 96.0121 61.0182 96.0185H46.6017V108.025H61.0231C63.7575 108.026 66.4653 107.458 68.9917 106.353C71.5181 105.247 73.8138 103.626 75.7472 101.583C77.6807 99.5391 79.2141 97.1127 80.2599 94.4422C81.3056 91.7718 81.8431 88.9096 81.8417 86.0194H81.8513V64.0141H46.6017V76.0151Z" fill="#27EACC"/>
</g>
<path d="M91.1648 114V63.0909H121.69V68.5597H97.3295V85.7614H119.403V91.2301H97.3295V114H91.1648ZM138.414 63.0909V114H132.249V63.0909H138.414ZM152.862 114H146.399L165.092 63.0909H171.456L190.149 114H183.686L168.473 71.1449H168.075L152.862 114ZM155.249 94.1136H181.3V99.5824H155.249V94.1136ZM198.079 114V63.0909H215.281C219.274 63.0909 222.539 63.8118 225.075 65.2535C227.627 66.6787 229.516 68.6094 230.742 71.0455C231.969 73.4815 232.582 76.1993 232.582 79.1989C232.582 82.1984 231.969 84.9245 230.742 87.3771C229.532 89.8298 227.66 91.7853 225.124 93.2436C222.589 94.6854 219.341 95.4062 215.38 95.4062H203.05V89.9375H215.181C217.915 89.9375 220.111 89.4652 221.768 88.5206C223.426 87.576 224.627 86.3 225.373 84.6925C226.135 83.0684 226.516 81.2372 226.516 79.1989C226.516 77.1605 226.135 75.3376 225.373 73.7301C224.627 72.1226 223.417 70.8632 221.744 69.9517C220.07 69.0237 217.849 68.5597 215.082 68.5597H204.244V114H198.079Z" fill="#ED195C"/>
<path d="M247.583 63.0909V114H241.717V63.0909H247.583ZM269.564 114.895C267.145 114.895 264.949 114.439 262.977 113.528C261.005 112.6 259.439 111.266 258.279 109.526C257.119 107.769 256.539 105.648 256.539 103.162C256.539 100.974 256.969 99.2012 257.831 97.8423C258.693 96.4669 259.845 95.3897 261.286 94.6108C262.728 93.8319 264.319 93.2519 266.059 92.8707C267.816 92.473 269.581 92.1581 271.354 91.9261C273.674 91.6278 275.555 91.4041 276.997 91.255C278.455 91.0893 279.516 90.8158 280.178 90.4347C280.858 90.0535 281.198 89.3906 281.198 88.446V88.2472C281.198 85.7945 280.526 83.8887 279.184 82.5298C277.858 81.1709 275.845 80.4915 273.144 80.4915C270.343 80.4915 268.147 81.1046 266.556 82.331C264.965 83.5573 263.847 84.8665 263.2 86.2585L257.632 84.2699C258.627 81.9498 259.952 80.1435 261.61 78.8509C263.283 77.5417 265.106 76.6302 267.078 76.1165C269.067 75.5862 271.022 75.321 272.945 75.321C274.171 75.321 275.58 75.4702 277.171 75.7685C278.778 76.0502 280.328 76.6385 281.819 77.5334C283.327 78.4283 284.578 79.7789 285.573 81.5852C286.567 83.3916 287.064 85.8111 287.064 88.8438V114H281.198V108.83H280.899C280.502 109.658 279.839 110.545 278.911 111.489C277.983 112.434 276.748 113.238 275.207 113.901C273.666 114.563 271.785 114.895 269.564 114.895ZM270.459 109.625C272.779 109.625 274.735 109.169 276.325 108.258C277.933 107.346 279.143 106.17 279.955 104.728C280.783 103.286 281.198 101.77 281.198 100.179V94.8097C280.949 95.108 280.402 95.3814 279.557 95.63C278.728 95.862 277.767 96.0691 276.673 96.2514C275.596 96.4171 274.544 96.5663 273.517 96.6989C272.506 96.8149 271.685 96.9143 271.056 96.9972C269.531 97.196 268.106 97.5192 266.78 97.9666C265.471 98.3975 264.41 99.0521 263.598 99.9304C262.803 100.792 262.405 101.969 262.405 103.46C262.405 105.499 263.159 107.04 264.667 108.084C266.192 109.111 268.122 109.625 270.459 109.625ZM303.638 91.0312V114H297.772V75.8182H303.439V81.7841H303.936C304.831 79.8452 306.19 78.2874 308.013 77.1108C309.836 75.9176 312.189 75.321 315.073 75.321C317.658 75.321 319.92 75.8513 321.859 76.9119C323.798 77.956 325.306 79.5469 326.383 81.6847C327.46 83.8059 327.999 86.4905 327.999 89.7386V114H322.132V90.1364C322.132 87.1368 321.354 84.8002 319.796 83.1264C318.238 81.4361 316.1 80.5909 313.382 80.5909C311.51 80.5909 309.836 80.9969 308.361 81.8089C306.903 82.621 305.751 83.8059 304.906 85.3636C304.061 86.9214 303.638 88.8106 303.638 91.0312ZM355.324 75.8182V80.7898H335.537V75.8182H355.324ZM341.304 66.6705H347.171V103.062C347.171 104.72 347.411 105.963 347.892 106.791C348.389 107.603 349.018 108.15 349.781 108.432C350.56 108.697 351.38 108.83 352.242 108.83C352.888 108.83 353.418 108.796 353.833 108.73C354.247 108.647 354.578 108.581 354.827 108.531L356.02 113.801C355.622 113.95 355.067 114.099 354.355 114.249C353.642 114.414 352.739 114.497 351.645 114.497C349.988 114.497 348.364 114.141 346.773 113.428C345.199 112.716 343.889 111.63 342.845 110.172C341.818 108.714 341.304 106.874 341.304 104.653V66.6705ZM375.384 114.895C372.965 114.895 370.769 114.439 368.797 113.528C366.825 112.6 365.259 111.266 364.099 109.526C362.939 107.769 362.359 105.648 362.359 103.162C362.359 100.974 362.79 99.2012 363.651 97.8423C364.513 96.4669 365.665 95.3897 367.107 94.6108C368.548 93.8319 370.139 93.2519 371.879 92.8707C373.636 92.473 375.401 92.1581 377.174 91.9261C379.494 91.6278 381.375 91.4041 382.817 91.255C384.275 91.0893 385.336 90.8158 385.999 90.4347C386.678 90.0535 387.018 89.3906 387.018 88.446V88.2472C387.018 85.7945 386.347 83.8887 385.004 82.5298C383.679 81.1709 381.665 80.4915 378.964 80.4915C376.163 80.4915 373.968 81.1046 372.377 82.331C370.786 83.5573 369.667 84.8665 369.021 86.2585L363.453 84.2699C364.447 81.9498 365.773 80.1435 367.43 78.8509C369.104 77.5417 370.927 76.6302 372.899 76.1165C374.887 75.5862 376.843 75.321 378.765 75.321C379.991 75.321 381.4 75.4702 382.991 75.7685C384.598 76.0502 386.148 76.6385 387.639 77.5334C389.147 78.4283 390.399 79.7789 391.393 81.5852C392.387 83.3916 392.884 85.8111 392.884 88.8438V114H387.018V108.83H386.72C386.322 109.658 385.659 110.545 384.731 111.489C383.803 112.434 382.568 113.238 381.027 113.901C379.486 114.563 377.605 114.895 375.384 114.895ZM376.279 109.625C378.599 109.625 380.555 109.169 382.146 108.258C383.753 107.346 384.963 106.17 385.775 104.728C386.604 103.286 387.018 101.77 387.018 100.179V94.8097C386.769 95.108 386.222 95.3814 385.377 95.63C384.549 95.862 383.588 96.0691 382.494 96.2514C381.417 96.4171 380.364 96.5663 379.337 96.6989C378.326 96.8149 377.506 96.9143 376.876 96.9972C375.351 97.196 373.926 97.5192 372.6 97.9666C371.291 98.3975 370.231 99.0521 369.419 99.9304C368.623 100.792 368.225 101.969 368.225 103.46C368.225 105.499 368.979 107.04 370.487 108.084C372.012 109.111 373.943 109.625 376.279 109.625ZM419.103 114.795C415.524 114.795 412.441 113.95 409.856 112.26C407.271 110.57 405.282 108.241 403.89 105.275C402.498 102.308 401.802 98.9195 401.802 95.108C401.802 91.2301 402.515 87.808 403.94 84.8416C405.382 81.8587 407.387 79.5303 409.956 77.8565C412.541 76.1662 415.557 75.321 419.004 75.321C421.689 75.321 424.108 75.8182 426.262 76.8125C428.417 77.8068 430.182 79.1989 431.557 80.9886C432.933 82.7784 433.786 84.8665 434.118 87.2528H428.251C427.804 85.5128 426.809 83.9716 425.268 82.6293C423.743 81.2704 421.689 80.5909 419.103 80.5909C416.816 80.5909 414.811 81.1875 413.088 82.3807C411.381 83.5573 410.047 85.2228 409.086 87.3771C408.141 89.5149 407.669 92.0256 407.669 94.9091C407.669 97.8589 408.133 100.428 409.061 102.615C410.005 104.803 411.331 106.501 413.038 107.711C414.761 108.921 416.783 109.526 419.103 109.526C420.628 109.526 422.012 109.26 423.255 108.73C424.498 108.2 425.55 107.438 426.412 106.443C427.273 105.449 427.886 104.256 428.251 102.864H434.118C433.786 105.117 432.966 107.147 431.657 108.954C430.364 110.744 428.649 112.169 426.511 113.229C424.39 114.273 421.921 114.795 419.103 114.795ZM416.319 113.801H421.191L420.794 115.79C422.086 115.989 423.271 116.527 424.348 117.406C425.426 118.3 425.964 119.717 425.964 121.656C425.964 123.794 425.078 125.534 423.304 126.876C421.548 128.235 418.954 128.915 415.524 128.915L415.325 125.037C416.866 125.037 418.142 124.788 419.153 124.291C420.181 123.811 420.694 122.999 420.694 121.855C420.694 120.712 420.272 119.933 419.426 119.518C418.581 119.104 417.214 118.822 415.325 118.673L416.319 113.801ZM453.929 114.895C451.51 114.895 449.314 114.439 447.342 113.528C445.37 112.6 443.804 111.266 442.644 109.526C441.484 107.769 440.904 105.648 440.904 103.162C440.904 100.974 441.335 99.2012 442.196 97.8423C443.058 96.4669 444.21 95.3897 445.652 94.6108C447.093 93.8319 448.684 93.2519 450.424 92.8707C452.181 92.473 453.946 92.1581 455.719 91.9261C458.039 91.6278 459.92 91.4041 461.362 91.255C462.82 91.0893 463.881 90.8158 464.544 90.4347C465.223 90.0535 465.563 89.3906 465.563 88.446V88.2472C465.563 85.7945 464.892 83.8887 463.549 82.5298C462.224 81.1709 460.21 80.4915 457.509 80.4915C454.708 80.4915 452.512 81.1046 450.922 82.331C449.331 83.5573 448.212 84.8665 447.566 86.2585L441.998 84.2699C442.992 81.9498 444.318 80.1435 445.975 78.8509C447.649 77.5417 449.471 76.6302 451.444 76.1165C453.432 75.5862 455.388 75.321 457.31 75.321C458.536 75.321 459.945 75.4702 461.536 75.7685C463.143 76.0502 464.693 76.6385 466.184 77.5334C467.692 78.4283 468.944 79.7789 469.938 81.5852C470.932 83.3916 471.429 85.8111 471.429 88.8438V114H465.563V108.83H465.265C464.867 109.658 464.204 110.545 463.276 111.489C462.348 112.434 461.113 113.238 459.572 113.901C458.031 114.563 456.15 114.895 453.929 114.895ZM454.824 109.625C457.144 109.625 459.1 109.169 460.691 108.258C462.298 107.346 463.508 106.17 464.32 104.728C465.149 103.286 465.563 101.77 465.563 100.179V94.8097C465.314 95.108 464.767 95.3814 463.922 95.63C463.094 95.862 462.132 96.0691 461.039 96.2514C459.962 96.4171 458.909 96.5663 457.882 96.6989C456.871 96.8149 456.051 96.9143 455.421 96.9972C453.896 97.196 452.471 97.5192 451.145 97.9666C449.836 98.3975 448.775 99.0521 447.963 99.9304C447.168 100.792 446.77 101.969 446.77 103.46C446.77 105.499 447.524 107.04 449.032 108.084C450.557 109.111 452.488 109.625 454.824 109.625ZM450.051 71.2443L445.478 71.0455C445.478 68.5099 446.199 66.4384 447.64 64.831C449.099 63.2069 450.897 62.3949 453.034 62.3949C453.979 62.3949 454.816 62.5606 455.545 62.892C456.274 63.2069 456.97 63.5715 457.633 63.9858C458.296 64.4001 458.975 64.773 459.672 65.1044C460.384 65.4193 461.188 65.5767 462.083 65.5767C463.027 65.5767 463.823 65.2121 464.469 64.483C465.132 63.7372 465.463 62.8423 465.463 61.7983L469.938 62.196C469.938 64.7812 469.209 66.8362 467.75 68.3608C466.309 69.8854 464.519 70.6477 462.381 70.6477C461.238 70.6477 460.293 70.4903 459.547 70.1754C458.801 69.844 458.139 69.4711 457.559 69.0568C456.979 68.6425 456.365 68.2779 455.719 67.9631C455.073 67.6316 454.277 67.4659 453.333 67.4659C452.388 67.4659 451.601 67.8388 450.971 68.5845C450.358 69.3137 450.051 70.2003 450.051 71.2443ZM497.648 114.795C494.201 114.795 491.177 113.975 488.575 112.335C485.99 110.694 483.968 108.399 482.51 105.449C481.068 102.499 480.347 99.0521 480.347 95.108C480.347 91.1307 481.068 87.6589 482.51 84.6925C483.968 81.7261 485.99 79.4226 488.575 77.782C491.177 76.1413 494.201 75.321 497.648 75.321C501.095 75.321 504.111 76.1413 506.697 77.782C509.298 79.4226 511.32 81.7261 512.762 84.6925C514.22 87.6589 514.949 91.1307 514.949 95.108C514.949 99.0521 514.22 102.499 512.762 105.449C511.32 108.399 509.298 110.694 506.697 112.335C504.111 113.975 501.095 114.795 497.648 114.795ZM497.648 109.526C500.267 109.526 502.421 108.854 504.111 107.512C505.802 106.17 507.053 104.405 507.865 102.217C508.677 100.03 509.083 97.66 509.083 95.108C509.083 92.5559 508.677 90.1778 507.865 87.9737C507.053 85.7696 505.802 83.9882 504.111 82.6293C502.421 81.2704 500.267 80.5909 497.648 80.5909C495.03 80.5909 492.876 81.2704 491.185 82.6293C489.495 83.9882 488.244 85.7696 487.432 87.9737C486.62 90.1778 486.214 92.5559 486.214 95.108C486.214 97.66 486.62 100.03 487.432 102.217C488.244 104.405 489.495 106.17 491.185 107.512C492.876 108.854 495.03 109.526 497.648 109.526Z" fill="#0A211D"/>
</svg>
