<svg width="639" height="157" viewBox="0 0 639 157" fill="none" xmlns="http://www.w3.org/2000/svg">
<mask id="mask0_4_11" style="mask-type:luminance" maskUnits="userSpaceOnUse" x="0" y="0" width="100" height="157">
<path d="M0.924744 0.25H99.0407V155.794H0.924744V0.25Z" fill="white" stroke="white" stroke-width="0.5"/>
</mask>
<g mask="url(#mask0_4_11)">
<path d="M46.8517 107.775V108.025H61.0231C63.7575 108.026 66.4653 107.458 68.9917 106.353C71.5181 105.247 73.8138 103.627 75.7472 101.583C77.6807 99.5391 79.2141 97.1127 80.2599 94.4422C81.3028 91.779 81.8402 88.9251 81.8417 86.0428C81.8417 86.035 81.8417 86.0272 81.8417 86.0194H81.8341H81.6013V85.7694M46.8517 107.775H61.0231H61.0233C63.7228 107.776 66.3964 107.215 68.8915 106.124C71.3866 105.032 73.6548 103.431 75.5656 101.411C77.4766 99.3911 78.9928 96.9922 80.0271 94.3511C81.0613 91.7099 81.5931 88.8787 81.5917 86.0195L81.5915 85.7694H81.6013M46.8517 107.775V96.2685M46.8517 107.775H46.6017L46.8517 96.2685M81.6013 85.7694V64.2641M81.6013 85.7694H81.8417H81.8513M81.8513 85.7694V64.2641H81.6013M81.8513 85.7694L70.4879 76.0151H70.2379H46.8517V75.7651M81.8513 85.7694L46.8517 96.2685M81.6013 64.2641V64.0141H46.8517V64.2641M81.6013 64.2641H46.8517M46.8517 64.2641H46.6017V75.7651H46.8517M46.8517 64.2641V75.7651M46.8517 75.7651H70.4879H70.7379V76.0151V86.0219V86.0228C70.7284 88.735 69.7041 91.3357 67.8848 93.2562C66.0651 95.1773 63.597 96.2619 61.0189 96.2685H61.0182H46.8517M51.7743 0.25012L99.0407 0.247572V22.0029C99.04 27.7765 96.8696 33.3107 93.0106 37.389C89.1521 41.4667 83.9221 43.7546 78.4721 43.7543H46.8517V32.2558H78.477H78.4775C81.0562 32.251 83.5251 31.1667 85.3453 29.2454C87.165 27.3244 88.1888 24.7227 88.1966 22.01V22.0093V11.9857V11.7357H87.9466L51.7791 11.7357L51.7779 11.7357C49.198 11.7483 46.7307 12.839 44.9136 14.765C43.0967 16.6906 42.0765 19.2949 42.0716 22.0088V22.0093V26.6629L42.0255 26.6514V26.9717V119.504V119.79L42.0812 119.783V133.77H42.0544L42.0546 134.02C42.0563 136.878 41.5254 139.708 40.4924 142.349C39.4594 144.99 37.9448 147.389 36.0357 149.409C34.1265 151.429 31.8604 153.031 29.367 154.124L29.4639 154.345L29.3669 154.124C26.8735 155.218 24.2014 155.781 21.503 155.782H0.915047L0.915047 118.015C0.916955 112.239 3.08911 106.704 6.94979 102.625C10.81 98.5468 16.0417 96.2588 21.4933 96.2596H30.9508H31.2008V96.0096V76.0164V75.7664H30.9508H0.919931L0.919931 54.0188L0.919931 54.0186C0.917565 51.1577 1.44892 48.3247 2.48329 45.6817C3.51767 43.0388 5.03457 40.6382 6.94658 38.6172C8.85857 36.5961 11.128 34.994 13.6248 33.9021C16.1215 32.8103 18.7969 32.2496 21.4979 32.252H21.4982H30.9556H31.2056V32.002V22.0055C31.2056 22.0055 31.2056 22.0054 31.2056 22.0054C31.2073 16.2318 33.378 10.6976 37.2366 6.61901C41.0949 2.54086 46.3242 0.251814 51.7742 0.25012C51.7742 0.25012 51.7742 0.25012 51.7743 0.25012ZM30.9556 64.2666H31.2056L31.2056 64.0167L31.2105 43.989L31.2106 43.7389H30.9605L21.503 43.7389L21.502 43.7389C18.9193 43.7493 16.4484 44.8401 14.6286 46.7679C12.8091 48.6952 11.7877 51.3026 11.7834 54.0196V54.02V64.0166V64.2666H12.0334H30.9556ZM31.2056 134.031V134.031V108.025V107.775H30.9556H21.4983C18.9177 107.774 16.4454 108.856 14.6239 110.779L14.766 110.913L14.6239 110.779C12.8029 112.701 11.7809 115.306 11.7785 118.021V118.021V144.038V144.288H12.0285H21.4982H21.4988C24.0774 144.281 26.5453 143.194 28.3633 141.27C30.1808 139.347 31.2014 136.744 31.2056 134.031Z" fill="#0DDE9B" stroke="black" stroke-width="0.5"/>
</g>
<path d="M91.1648 114V63.0909H121.69V68.5597H97.3295V85.7614H119.403V91.2301H97.3295V114H91.1648ZM138.414 63.0909V114H132.249V63.0909H138.414ZM152.862 114H146.399L165.092 63.0909H171.456L190.149 114H183.686L168.473 71.1449H168.075L152.862 114ZM155.249 94.1136H181.3V99.5824H155.249V94.1136ZM198.079 114V63.0909H215.281C219.274 63.0909 222.539 63.8118 225.075 65.2535C227.627 66.6787 229.516 68.6094 230.742 71.0455C231.969 73.4815 232.582 76.1993 232.582 79.1989C232.582 82.1984 231.969 84.9245 230.742 87.3771C229.532 89.8298 227.66 91.7853 225.124 93.2436C222.589 94.6854 219.341 95.4062 215.38 95.4062H203.05V89.9375H215.181C217.915 89.9375 220.111 89.4652 221.768 88.5206C223.426 87.576 224.627 86.3 225.373 84.6925C226.135 83.0684 226.516 81.2372 226.516 79.1989C226.516 77.1605 226.135 75.3376 225.373 73.7301C224.627 72.1226 223.417 70.8632 221.744 69.9517C220.07 69.0237 217.849 68.5597 215.082 68.5597H204.244V114H198.079Z" fill="#ED195C"/>
<path d="M242.512 114V63.0909H248.677V108.531H272.342V114H242.512ZM287.188 114H280.725L299.419 63.0909H305.782L324.475 114H318.012L302.799 71.1449H302.401L287.188 114ZM289.575 94.1136H315.626V99.5824H289.575V94.1136ZM372.774 63.0909V114H366.808L339.067 74.0284H338.57V114H332.405V63.0909H338.371L366.212 103.162H366.709V63.0909H372.774ZM382.326 68.5597V63.0909H420.508V68.5597H404.499V114H398.335V68.5597H382.326ZM426.163 114H419.7L438.393 63.0909H444.757L463.45 114H456.987L441.774 71.1449H441.376L426.163 114ZM428.549 94.1136H454.6V99.5824H428.549V94.1136ZM509.953 79H503.788C503.424 77.2268 502.786 75.669 501.874 74.3267C500.979 72.9844 499.885 71.8575 498.593 70.946C497.317 70.018 495.9 69.322 494.342 68.858C492.784 68.3939 491.16 68.1619 489.47 68.1619C486.388 68.1619 483.595 68.9408 481.093 70.4986C478.607 72.0563 476.627 74.3516 475.152 77.3842C473.693 80.4169 472.964 84.1373 472.964 88.5455C472.964 92.9536 473.693 96.674 475.152 99.7067C476.627 102.739 478.607 105.035 481.093 106.592C483.595 108.15 486.388 108.929 489.47 108.929C491.16 108.929 492.784 108.697 494.342 108.233C495.9 107.769 497.317 107.081 498.593 106.17C499.885 105.242 500.979 104.107 501.874 102.764C502.786 101.405 503.424 99.8475 503.788 98.0909H509.953C509.489 100.693 508.644 103.021 507.417 105.076C506.191 107.131 504.666 108.879 502.844 110.321C501.021 111.746 498.974 112.832 496.704 113.577C494.45 114.323 492.039 114.696 489.47 114.696C485.128 114.696 481.267 113.635 477.886 111.514C474.506 109.393 471.846 106.377 469.907 102.466C467.968 98.5549 466.998 93.9148 466.998 88.5455C466.998 83.1761 467.968 78.536 469.907 74.625C471.846 70.714 474.506 67.6979 477.886 65.5767C481.267 63.4555 485.128 62.3949 489.47 62.3949C492.039 62.3949 494.45 62.7678 496.704 63.5135C498.974 64.2592 501.021 65.353 502.844 66.7947C504.666 68.2199 506.191 69.96 507.417 72.0149C508.644 74.0533 509.489 76.3816 509.953 79ZM486.885 114.199H491.757L491.359 116.188C492.652 116.386 493.837 116.925 494.914 117.803C495.991 118.698 496.53 120.115 496.53 122.054C496.53 124.192 495.643 125.932 493.87 127.274C492.113 128.633 489.52 129.312 486.089 129.312L485.89 125.435C487.432 125.435 488.708 125.186 489.719 124.689C490.746 124.208 491.26 123.396 491.26 122.253C491.26 121.109 490.837 120.33 489.992 119.916C489.147 119.502 487.78 119.22 485.89 119.071L486.885 114.199ZM522.003 114H515.54L534.233 63.0909H540.597L559.29 114H552.827L537.614 71.1449H537.216L522.003 114ZM524.389 94.1136H550.44V99.5824H524.389V94.1136ZM529.759 58.0199L525.185 57.821C525.185 55.2855 525.906 53.214 527.347 51.6065C528.806 49.9825 530.604 49.1705 532.741 49.1705C533.686 49.1705 534.523 49.3362 535.252 49.6676C535.981 49.9825 536.677 50.3471 537.34 50.7614C538.003 51.1757 538.683 51.5485 539.379 51.88C540.091 52.1948 540.895 52.3523 541.79 52.3523C542.734 52.3523 543.53 51.9877 544.176 51.2585C544.839 50.5128 545.17 49.6179 545.17 48.5739L549.645 48.9716C549.645 51.5568 548.916 53.6117 547.457 55.1364C546.016 56.661 544.226 57.4233 542.088 57.4233C540.945 57.4233 540 57.2659 539.254 56.951C538.509 56.6196 537.846 56.2467 537.266 55.8324C536.686 55.4181 536.072 55.0535 535.426 54.7386C534.78 54.4072 533.984 54.2415 533.04 54.2415C532.095 54.2415 531.308 54.6143 530.678 55.3601C530.065 56.0892 529.759 56.9758 529.759 58.0199ZM607.781 88.5455C607.781 93.9148 606.812 98.5549 604.873 102.466C602.934 106.377 600.274 109.393 596.894 111.514C593.513 113.635 589.652 114.696 585.31 114.696C580.968 114.696 577.107 113.635 573.726 111.514C570.345 109.393 567.686 106.377 565.747 102.466C563.808 98.5549 562.838 93.9148 562.838 88.5455C562.838 83.1761 563.808 78.536 565.747 74.625C567.686 70.714 570.345 67.6979 573.726 65.5767C577.107 63.4555 580.968 62.3949 585.31 62.3949C589.652 62.3949 593.513 63.4555 596.894 65.5767C600.274 67.6979 602.934 70.714 604.873 74.625C606.812 78.536 607.781 83.1761 607.781 88.5455ZM601.816 88.5455C601.816 84.1373 601.078 80.4169 599.603 77.3842C598.145 74.3516 596.164 72.0563 593.662 70.4986C591.176 68.9408 588.392 68.1619 585.31 68.1619C582.227 68.1619 579.435 68.9408 576.933 70.4986C574.447 72.0563 572.467 74.3516 570.992 77.3842C569.533 80.4169 568.804 84.1373 568.804 88.5455C568.804 92.9536 569.533 96.674 570.992 99.7067C572.467 102.739 574.447 105.035 576.933 106.592C579.435 108.15 582.227 108.929 585.31 108.929C588.392 108.929 591.176 108.15 593.662 106.592C596.164 105.035 598.145 102.739 599.603 99.7067C601.078 96.674 601.816 92.9536 601.816 88.5455Z" fill="#0A211D"/>
</svg>
